<?xml version="1.0" encoding="utf-8" ?>
<svg xmlns="http://www.w3.org/2000/svg" xmlns:xlink="http://www.w3.org/1999/xlink" width="1024" height="1024">
	<defs>
		<linearGradient id="gradient_0" gradientUnits="userSpaceOnUse" x1="640.11639" y1="223.05627" x2="383.13409" y2="489.72147">
			<stop offset="0" stop-color="#F9B565"/>
			<stop offset="1" stop-color="#EA7877"/>
		</linearGradient>
	</defs>
	<path fill="url(#gradient_0)" d="M507.921 164.663C516.804 163.721 525.784 164.958 534.081 168.269C542.276 171.475 549.767 176.573 557.307 181.06L592.666 202.165L638.443 229.186C646.542 234.003 655 238.59 662.695 244.013C673.999 251.979 680.923 262.994 683.177 276.651C684.816 286.584 684.063 297.249 684.026 307.291L683.997 351.422L683.975 404.807C683.956 415.322 684.662 426.526 683.066 436.914C681.839 444.905 678.94 451.702 674.155 458.218C670.658 462.982 666.661 466.685 661.843 470.076C653.332 476.064 643.82 481.107 634.856 486.415C618.41 496.25 601.898 505.976 585.322 515.592C575.349 521.484 565.413 527.439 555.515 533.459C548.802 537.529 542.06 541.922 534.949 545.259C528.8 548.144 522.595 549.477 515.909 550.469C506.763 550.645 497.982 549.147 489.541 545.555C481.496 542.132 474.085 536.888 466.575 532.419L422.641 506.155L382.36 482.249C375.023 477.9 367.178 473.765 360.265 468.768C348.912 460.561 342.24 449.806 340.119 435.944C338.668 426.456 339.37 416.205 339.385 406.608L339.427 357.961L339.388 307.594C339.367 297.766 338.597 287.259 340.065 277.551C341.322 269.236 344.334 262.145 349.356 255.379C353.186 250.218 357.925 246.185 363.202 242.553C370.025 237.858 377.591 233.907 384.761 229.733L425.078 206.354L465.956 182.709C473.707 178.265 481.489 173.397 489.618 169.682C495.568 166.963 501.476 165.655 507.921 164.663ZM511.311 536.39C517.616 536.182 523.269 535.145 529.061 532.565C536.6 529.207 543.696 524.579 550.776 520.361L583.334 500.966L627.117 475.061C635.432 470.201 644.119 465.638 652.167 460.357C655.066 458.471 657.727 456.243 660.092 453.72C665.022 448.514 668.575 442.384 669.978 435.305C671.269 428.794 670.695 421.296 670.692 414.659L670.673 382.263L670.654 322.313C670.669 310.669 670.975 298.948 670.579 287.314C670.178 275.532 666.924 266.215 658.205 258C649.967 250.238 637.397 244.359 627.558 238.578C611.523 228.951 595.416 219.447 579.236 210.066L549.926 192.68C543.696 188.977 537.447 184.901 530.847 181.896C524.91 179.192 519.044 177.575 512.481 177.719C505.46 178.212 499.094 180.108 492.712 183.06C485.275 186.5 478.165 190.894 471.077 195.005L436.03 215.531L394.813 239.662C386.71 244.409 378.367 248.93 370.576 254.175C367.405 256.269 364.536 258.786 362.049 261.658C357.451 266.997 354.415 274.085 353.341 281.028C351.968 289.905 352.516 299.326 352.524 308.298L352.575 350.742L352.547 401.297C352.543 410.776 352.099 420.467 352.856 429.913C353.661 439.954 357.92 449.095 365.734 455.601C372.033 460.843 379.803 464.863 386.86 469.013L419.429 488.253C435.359 498.02 451.341 507.699 467.376 517.291C476.228 522.606 485.228 528.574 494.617 532.87C500.113 535.384 505.343 536.029 511.311 536.39Z"/>
	<defs>
		<linearGradient id="gradient_1" gradientUnits="userSpaceOnUse" x1="588.54578" y1="263.71176" x2="434.78796" y2="444.57193">
			<stop offset="0" stop-color="#FCBC62"/>
			<stop offset="1" stop-color="#EC886F"/>
		</linearGradient>
	</defs>
	<path fill="url(#gradient_1)" d="M567.819 274.117C574.387 273.802 600.556 272.53 604.944 275.763C606.5 276.91 607.375 278.807 607.669 280.675C608.506 285.994 607.991 292.125 607.996 297.533L608.02 329.503L608.04 391.564C608.041 402.414 608.408 413.38 607.959 424.213C607.878 426.174 607.838 429.22 606.602 430.761C605.432 432.222 603.715 433.366 602.133 434.33C596.009 438.06 589.219 441.066 582.882 444.461C579.028 446.526 575.145 449.339 571.143 450.983C569.874 451.504 568.464 451.834 567.089 451.867C565.362 451.909 563.836 451.527 562.579 450.274C560.259 447.961 561.392 402.265 561.402 396.75C561.402 380.875 560.964 364.915 561.416 349.052C550.641 359.597 540.811 371.613 530.744 382.856C526.912 387.135 523.112 392.053 518.815 395.856C516.517 397.89 513.654 399.44 510.495 399.151C507.856 398.91 505.533 397.485 503.561 395.796C498.648 391.588 494.398 385.807 490.063 380.973C481.223 371.117 472.105 361.407 463.687 351.191C464.383 364.463 463.759 377.964 463.788 391.263C463.831 410.347 464.311 429.577 463.546 448.645C462.956 449.258 462.325 449.831 461.659 450.361C459.658 451.94 457.512 452.321 455.019 451.936C450.592 451.254 423.983 436.669 419.602 433.412C418.371 432.496 417.459 431.306 416.568 430.073C415.82 412.463 416.38 394.612 416.382 376.97L416.431 278.982C417.903 276.667 419.66 275.41 422.004 274.046C431.056 273.649 440.34 273.688 449.394 273.91C452.155 273.978 455.328 274.074 457.677 275.672C464.541 280.343 470.762 288.45 476.479 294.488C488.163 306.969 499.925 319.377 511.765 331.711L545.32 296.27C552.355 288.834 559.33 279.855 567.819 274.117Z"/>
	<path fill="#EB7972" d="M213.106 614.64C215.704 606.799 220.274 598.934 223.825 591.436C229.958 578.484 235.752 564.884 242.797 552.417C243.957 550.363 245.17 548.603 246.919 546.996C251.494 545.295 280.827 546.086 287.29 546.625C287.417 547.236 287.523 547.851 287.609 548.47C288.792 556.98 288.047 566.461 288.042 575.079L288.025 625.642L288.05 668.816C288.051 675.935 288.741 683.844 287.664 690.862C287.571 691.468 287.58 692.009 287.141 692.468C286.132 693.52 284.475 693.763 283.088 693.904C279.572 694.262 257.377 694.601 255.504 693.117C253.054 681.939 254.362 660.884 254.372 648.653C254.385 632.316 253.765 615.731 254.407 599.424C254.499 598.557 254.521 599.053 254.166 597.954C251.419 601.311 249.688 607.006 247.86 610.995C243.946 619.533 225.511 662.428 222.029 665.239C218.275 668.268 209.241 667.119 204.663 666.658C198.829 660.38 191.219 641.3 187.187 632.828C181.089 620.02 174.627 607.25 169.079 594.196C168.72 610.882 168.582 627.571 168.665 644.26C168.681 652.801 169.873 686.988 167.898 692.984C166.62 693.726 165.272 693.78 163.831 693.871C159.019 694.175 141.603 695.001 138.274 692.115C136.033 685.635 137.392 642.731 137.37 633.344L137.295 582.504C137.283 573.107 136.988 563.613 137.341 554.225C137.434 551.733 137.684 549.405 138.674 547.09C140.725 545.298 157.208 546.397 161.099 546.261C165.916 546.419 173.983 545.038 178.368 546.805C179.775 547.372 180.258 548.114 181.044 549.316C185.469 556.085 188.757 564.369 192.318 571.666L213.106 614.64Z"/>
	<path fill="#EB7972" d="M349.079 584.669C361.911 583.069 376.378 586.731 386.653 594.601C398.092 603.363 404.719 616.737 406.481 630.889C408.445 646.673 405.385 664.016 395.339 676.689C386.366 688.01 374.295 693.796 360.121 695.44C346.752 697.285 332.503 694.298 321.612 686.188C310.709 678.07 304.182 666.268 302.217 652.901C299.747 636.102 302.61 618.187 313.016 604.423C322.031 592.499 334.554 586.7 349.079 584.669ZM356.454 670.023C362.507 668.883 367.001 666.263 370.45 660.991C376.282 652.079 376.378 638.939 374.043 628.899C372.635 622.844 369.798 616.949 364.356 613.549C360.874 611.374 356.979 610.689 352.928 610.673C346.775 611.606 342.243 613.096 338.266 618.273C331.961 626.48 331.416 639.633 332.942 649.47C333.949 655.963 336.819 662.473 342.207 666.489C346.586 669.754 351.205 670.09 356.454 670.023Z"/>
	<defs>
		<linearGradient id="gradient_2" gradientUnits="userSpaceOnUse" x1="617.00824" y1="597.25769" x2="549.44714" y2="683.20728">
			<stop offset="0" stop-color="#F3A068"/>
			<stop offset="1" stop-color="#EB866E"/>
		</linearGradient>
	</defs>
	<path fill="url(#gradient_2)" d="M579.776 584.695C579.982 584.658 580.187 584.611 580.395 584.584C592.043 583.091 606.103 587.496 615.327 594.571C627.232 603.703 633.927 616.836 635.698 631.604C637.592 647.405 634.222 664.464 624.176 677.093C614.728 688.973 602.055 694.044 587.346 695.72C587.178 695.744 587.011 695.773 586.842 695.791C573.982 697.164 559.675 693.025 549.574 684.989C538.596 676.256 533.05 663.391 531.519 649.688C529.681 633.24 532.799 615.776 543.43 602.705C552.75 591.245 565.405 586.191 579.776 584.695ZM587.446 669.478C593.009 668.297 597.29 665.354 600.305 660.5C605.85 651.573 606.203 638.035 603.752 628.095C602.296 622.191 598.946 616.47 593.641 613.262C589.78 610.928 585.181 610.393 580.778 611.142C575.426 611.866 571.713 613.829 568.378 618.203C561.759 626.884 561.102 639.512 562.772 649.898C563.819 656.417 566.57 662.803 572.149 666.687C576.772 669.905 582.028 670.373 587.446 669.478Z"/>
	<defs>
		<linearGradient id="gradient_3" gradientUnits="userSpaceOnUse" x1="714.44507" y1="555.34021" x2="681.83533" y2="698.60809">
			<stop offset="0" stop-color="#F8AE64"/>
			<stop offset="1" stop-color="#EF976A"/>
		</linearGradient>
	</defs>
	<path fill="url(#gradient_3)" d="M653.923 546.569C660.454 546.177 676.149 545.107 681.626 547.402C682.588 549.407 682.673 551.791 682.787 553.988C683.423 566.208 682.79 578.657 682.792 590.911C682.794 602.645 683.568 614.897 682.485 626.543C687.706 618.629 693.447 611.209 699.204 603.688C703.71 597.802 707.93 591.769 713.283 586.594C717.812 586.336 742.122 585.429 745.316 587.41C745.337 587.572 745.378 587.733 745.379 587.896C745.413 592.691 715.33 630.547 710.035 637.236C719.531 650.097 728.259 663.527 737.585 676.514C740.458 680.684 744.732 685.517 746.481 690.23C746.858 691.246 747.151 692.034 746.668 693.043C739.886 695.158 720.408 694.067 712.461 693.841C707.042 687.67 702.701 680.238 698.221 673.373C693.03 665.416 687.626 657.527 682.901 649.286L682.87 675.537C682.855 680.288 683.271 685.589 682.456 690.273C682.24 691.51 682.026 692.715 680.78 693.306C678.328 694.469 656.178 694.54 653.585 693.256C653.012 692.972 653.122 693.047 653.007 692.494C651.391 684.773 652.31 675.904 652.323 668.033L652.364 625.226L652.356 577.088C652.322 568.682 651.792 560.111 652.302 551.732C652.431 549.625 652.781 548.354 653.923 546.569Z"/>
	<path fill="#F1A267" d="M797.556 584.7C805.868 583.788 815.337 584.852 823.074 588.11C831.087 591.484 837.477 597.53 840.654 605.68C842.412 610.192 843.171 615.097 843.513 619.905C844.718 636.822 843.603 654.217 844.07 671.218C844.176 675.1 845.812 690.2 844.588 692.96C842.857 693.489 841.152 693.756 839.347 693.883C835.973 694.12 819.615 694.852 817.831 693.017C815.388 690.505 815.547 685.424 815.447 682.108C814.369 683.56 813.173 684.921 811.871 686.178C804.395 693.376 793.739 696.388 783.53 695.919C773.237 695.446 765.303 691.557 758.392 683.981C754.242 678.213 752.113 671.675 751.86 664.582C751.514 654.858 754.405 645.813 761.143 638.668C773.206 625.875 796.974 623.899 813.629 623.34C813.507 621.216 813.323 619.019 812.751 616.963C811.956 614.108 809.525 611.566 806.93 610.24C802.526 607.988 796.295 608.107 791.731 609.79C786.536 611.706 784.215 615.085 782.014 619.862C776.506 619.943 764.9 621.136 760.203 619.162C759.509 618.253 759.1 617.835 758.989 616.652C758.415 610.52 762.052 602.941 765.836 598.31C773.75 588.624 785.634 585.829 797.556 584.7ZM785.318 668.782C789.918 671.248 794.53 671.954 799.639 670.523C804.799 669.055 809.149 665.567 811.704 660.85C814.708 655.252 814.204 648.609 814.01 642.479L813.492 641.785C803.517 642.719 790.865 643.141 784.066 651.732C782.195 654.095 781.144 656.999 781.509 660.03C781.899 663.265 783.272 666.271 785.318 668.782Z"/>
	<path fill="#EB7972" d="M481.372 584.705C486.927 584.77 492.216 585.216 497.372 587.465C505.872 591.172 511.976 598.349 515.125 606.966C516.94 611.934 517.797 617.174 518.243 622.428C518.975 631.06 519.332 689.714 517.77 692.471C517.389 693.145 516.119 693.414 515.393 693.579C511.604 694.445 491.361 694.667 489.008 692.862C487.682 691.845 487.173 690.174 487.009 688.58C486.641 685.008 487.052 681.039 487.053 677.418C487.062 667.698 487.123 657.978 487.237 648.259C487.324 641.109 487.812 633.667 486.814 626.573C486.137 621.76 484.434 616.638 480.271 613.741C476.613 611.196 471.704 611.246 467.499 612.179C461.584 613.491 458.431 617.45 455.299 622.257C447.678 636.266 455.625 685.692 450.634 693.042C445.075 694.76 425.953 694.574 420.22 693.024C419.903 692.561 419.843 692.529 419.637 691.909C418.831 689.472 419.056 599.536 419.393 594.002C419.547 591.474 419.888 589.282 421.257 587.122C423.117 585.789 441.704 586.185 445.34 586.261C447.23 586.3 449.693 586.556 450.966 588.154C452.908 590.591 452.035 597.783 452.038 600.814C452.466 600.214 452.903 599.647 453.387 599.09C460.914 590.426 469.819 585.494 481.372 584.705Z"/>
	<path fill="#F1A267" d="M865.795 586.561C872.388 586.332 884.898 585.357 890.789 587.115C890.808 587.287 890.775 587.474 890.847 587.633C890.969 587.903 891.219 588.099 891.354 588.363C893.216 592.005 892.602 677.831 892.177 687.27C892.085 689.31 891.938 691.222 891.263 693.171C886.99 694.732 868.347 694.774 864.082 693.086C862.402 686.157 863.451 675.628 863.446 668.353L863.415 617.06L863.401 597.371C863.401 594.867 863.077 591.726 863.481 589.28C863.732 587.758 864.654 587.421 865.795 586.561Z"/>
	<path fill="#BEBEBE" d="M576.565 755.036C580.226 755.01 583.773 755.081 587.412 755.497C586.657 760.03 584.895 764.376 583.369 768.696C578.897 781.588 575.443 794.905 571.275 807.913L560.913 807.668C558.128 795.168 552.954 783.258 550.615 770.603C546.135 782.477 542.631 795.476 539.439 807.773C536.059 807.888 532.659 807.727 529.279 807.64C526.085 798.549 523.827 788.971 521.105 779.716C518.865 772.1 515.553 763.794 514.427 755.975C515.771 755.129 517.202 755.292 518.758 755.214L525.275 755.37C527.7 767.893 531.98 780.192 534.498 792.771C538.367 780.416 541.97 767.98 545.306 755.472C548.713 755.156 552.02 755.095 555.44 755.176L565.94 793.049C569.851 780.527 573.038 767.677 576.565 755.036Z"/>
	<path fill="#BEBEBE" d="M370.534 754.57C371.856 754.496 373.186 754.418 374.511 754.415C380.846 754.404 387.087 756.047 391.633 760.716C398.266 767.53 398.75 776.705 398.591 785.624L361.049 785.629C361.615 788.175 362.232 790.747 363.709 792.939C365.886 796.24 369.328 798.497 373.223 799.177C379.019 800.247 384.047 798.221 388.716 794.934C389.495 794.636 390.168 794.633 390.994 794.575C393.311 795.606 394.745 796.604 395.796 798.964C395.775 799.937 395.879 800.41 395.411 801.296C393.731 804.482 387.84 806.696 384.506 807.709C377.775 809.755 368.049 809.545 361.866 805.974C356.39 802.811 352.498 797.088 350.9 791.056C348.739 782.897 349.424 772.772 353.892 765.488C357.798 759.12 363.501 756.184 370.534 754.57ZM360.954 776.536L375.375 776.521C379.636 776.55 383.931 776.465 388.187 776.645C387.034 772.457 385.853 768.466 381.713 766.252C379.053 764.831 376.063 764.558 373.098 764.628C369.022 765.46 366.028 766.476 363.688 770.159C362.458 772.096 361.626 774.351 360.954 776.536Z"/>
	<path fill="#BEBEBE" d="M678.942 754.604C680.123 754.513 681.319 754.413 682.505 754.423C688.776 754.476 694.872 756.329 699.347 760.885C706.065 767.723 706.62 776.614 706.512 785.612L668.465 785.595C669.277 788.731 669.991 791.495 672.113 794.057C674.761 797.254 678.361 799.026 682.477 799.415C688.242 799.958 692.888 797.855 697.196 794.201C697.559 794.147 697.88 794.076 698.255 794.13C699.83 794.359 702.422 796.317 703.145 797.774C703.672 798.837 703.684 799.895 703.182 800.966C701.541 804.464 693.957 807.283 690.438 808.128C683.116 809.886 674.857 809.245 668.427 805.07C662.964 801.524 659.609 795.838 658.279 789.537C656.554 781.362 657.496 771.923 662.242 764.886C666.297 758.874 672.011 755.932 678.942 754.604ZM668.859 776.668L683.678 776.495L695.753 776.592C694.458 772.519 693.106 768.222 689.053 766.06C686.822 764.87 684.469 764.621 681.983 764.668C678.173 765.163 674.868 765.801 672.317 768.976C670.505 771.23 669.681 773.949 668.859 776.668Z"/>
	<path fill="#BEBEBE" d="M776.058 754.607C780.835 754.303 785.323 754.456 789.749 756.547C795.428 759.229 799.376 764.289 801.357 770.169C802.662 774.04 804.087 781.053 802.207 784.748C799.811 786.673 770.298 785.539 765.564 785.481C766.087 788.067 766.592 790.677 768.026 792.938C770.156 796.294 773.373 798.406 777.275 799.104C783.982 800.304 788.836 797.81 794.07 794.015C796.632 795.223 798.822 795.952 799.938 798.69C799.938 799.673 799.896 800.283 799.436 801.181C797.69 804.587 791.413 807.061 787.802 808.038C780.377 810.047 772.781 809.276 766.117 805.341C760.52 802.035 756.942 796.531 755.403 790.284C753.392 782.125 754.431 772.632 758.974 765.463C763.114 758.93 768.81 756.227 776.058 754.607ZM765.824 776.639C770.565 776.546 775.307 776.507 780.048 776.521L792.365 776.61C791 772.588 789.565 768.215 785.559 766.064C783.641 765.034 781.624 764.796 779.485 764.699C775.379 765.065 771.876 765.806 769.175 769.209C767.411 771.432 766.645 773.979 765.824 776.639Z"/>
	<path fill="#BEBEBE" d="M245.435 736.274C258.251 735.611 271.159 736.981 283.948 736.082L283.912 745.799C273.251 746.575 262.159 746.037 251.445 745.98C251.546 752.633 251.784 759.455 251.186 766.082C260.498 765.427 269.956 765.866 279.305 765.544L279.415 776.02C270.147 775.733 260.718 776.398 251.489 775.553L251.522 782.875L251.442 798.379L284.532 798.362L284.336 807.697C269.627 807.303 254.829 807.609 240.11 807.67C239.135 784.044 239.857 760.057 239.96 736.394L245.435 736.274Z"/>
	<path fill="#BEBEBE" d="M604.822 736.226C606.396 735.968 608.256 736.147 609.865 736.136C609.706 744.368 609.896 752.638 609.922 760.874C614.818 757.21 619.662 754.163 626.041 754.425C631.03 754.63 635.616 756.16 638.991 759.967C641.181 762.437 642.597 765.52 643.373 768.709C645.719 778.348 644.536 797.232 644.165 807.648L633.424 807.666C633.344 798.098 633.763 788.426 633.227 778.877C633.028 775.334 633.05 771.048 630.664 768.188C628.809 765.964 625.78 764.973 622.97 764.85C619.667 764.705 616.191 765.69 613.821 768.072C612.069 769.833 611.001 772.094 610.464 774.502C608.894 781.533 609.838 799.279 609.791 807.615L599.162 807.691C598.435 794.007 599.031 780.006 599.044 766.291C599.053 756.827 598.161 746.277 599.452 736.953C600.97 736.135 603.106 736.318 604.822 736.226Z"/>
	<path fill="#BEBEBE" d="M493.673 755.436C497.463 755.282 501.146 755.195 504.929 755.518C501.701 767.798 495.446 779.439 491.669 791.626C488.811 799.227 486.315 807.696 482.431 814.822C479.163 820.816 474.331 824.203 467.8 826.073C464.813 826.929 461.72 827.702 458.884 826.114C457.526 823.684 458.376 818.946 458.612 816.216C461.458 816.199 465.436 816.67 468.017 815.419C471.02 813.963 471.76 810.958 472.8 808.048C471.617 802.864 469.226 797.682 467.316 792.719L457.809 768.032C456.308 764.129 454.354 760.016 453.484 755.936C454.783 755.123 456.774 755.34 458.321 755.278L464.926 755.432L479.547 796.693C483.828 782.866 488.607 768.997 493.673 755.436Z"/>
	<path fill="#BEBEBE" d="M333.95 755.27C337.652 755.07 341.375 755.21 345.079 755.276C343.916 759.906 342.017 764.234 340.19 768.629C334.981 781.562 330.242 794.696 325.159 807.683C321.642 807.636 318.116 807.736 314.598 807.782C306.604 790.963 300.751 772.739 293.864 755.41C296.275 755.388 298.687 755.318 301.097 755.267C302.571 755.447 304.214 755.203 305.703 755.104C310.786 767.97 314.9 781.499 319.601 794.544C325.534 782.102 328.44 767.993 333.95 755.27Z"/>
	<path fill="#F1A267" d="M876.593 545.41C885.676 544.678 893.667 551.371 894.54 560.442C895.412 569.514 888.844 577.607 879.788 578.62C873.803 579.289 867.922 576.682 864.4 571.797C860.878 566.912 860.262 560.508 862.788 555.042C865.314 549.575 870.59 545.894 876.593 545.41Z"/>
	<path fill="#BEBEBE" d="M435.159 754.593C437.323 754.411 439.545 754.492 441.719 754.474C441.848 757.122 441.867 759.843 441.769 762.491C441.746 763.123 441.718 764.907 441.415 765.376C440.965 766.074 430.225 765.813 426.359 769.484C420.588 774.964 422.594 799.205 422.603 807.71L412.447 807.64L411.993 807.492C411.819 807.256 411.556 807.066 411.471 806.786C410.903 804.917 411.449 760.671 411.435 755.53C415.182 755.378 418.924 755.402 422.667 755.114C422.678 758.064 422.545 761.019 422.456 763.968C422.999 762.895 423.54 761.805 424.178 760.785C426.626 756.871 430.898 755.476 435.159 754.593Z"/>
	<path fill="#BEBEBE" d="M740.53 754.573C742.771 754.348 745.079 754.49 747.331 754.524C747.499 758.408 747.364 762.167 747.081 766.044C742.313 765.728 737.242 765.468 733.36 768.791C731.351 770.511 730.114 772.884 729.493 775.43C727.429 783.885 729.242 798.257 728.719 807.598L718.079 807.664C717.327 790.445 717.559 772.723 718.09 755.494L728.681 755.258C728.685 758.348 728.534 761.449 728.446 764.538C728.937 763.585 729.456 762.647 730.002 761.724C732.744 757.175 735.558 755.72 740.53 754.573Z"/>
</svg>
